<?xml version="1.0" encoding="utf-8"?>
<!-- Generator: Adobe Illustrator 22.1.0, SVG Export Plug-In . SVG Version: 6.00 Build 0)  -->
<svg version="1.1"
	 id="Layer_1" xmlns:cc="http://creativecommons.org/ns#" xmlns:dc="http://purl.org/dc/elements/1.1/" xmlns:inkscape="http://www.inkscape.org/namespaces/inkscape" xmlns:rdf="http://www.w3.org/1999/02/22-rdf-syntax-ns#" xmlns:sodipodi="http://sodipodi.sourceforge.net/DTD/sodipodi-0.dtd" xmlns:svg="http://www.w3.org/2000/svg"
	 xmlns="http://www.w3.org/2000/svg" xmlns:xlink="http://www.w3.org/1999/xlink" x="0px" y="0px" viewBox="0 0 512 512"
	 style="enable-background:new 0 0 512 512;" xml:space="preserve">
<path d="M424.9,481.9c-2.7,0-5.1-1.1-6.8-2.9L300.3,361.5h-59.2v21.3c0,18.2-14.9,32.9-33.1,32.9h-91.8l-64.3,63.4
	c-1.7,1.7-4,2.7-6.5,2.7c-2.5,0-4.9-1-6.6-2.8c-2-2-3-5-2.5-7.9l9.7-55.3H33.1C14.9,415.7,0,400.9,0,382.7V267.6
	c0-18.2,14.9-32.9,33.1-32.9h39.1V75.3c0-25,20.4-45.4,45.4-45.4l348.9,0.1c25,0,45.4,20.4,45.4,45.4v240.7
	c0,25-20.4,45.4-45.4,45.4h-43.8l11.3,110c0.3,2.4-0.4,4.9-1.9,6.8c-1.5,1.9-3.7,3.2-6.1,3.4C425.6,481.8,425.3,481.9,424.9,481.9z
	 M117.6,48.6c-15.1,0-26.9,11.8-26.9,26.9v240.7c0,15.1,11.8,26.9,26.9,26.9h186.6c2.4,0,4.8,0.9,6.5,2.5l102.4,102.2l-9.8-94.6
	c-0.5-5.2,3.2-9.6,8.4-10.1l0.1,0h54.9c15.1,0,26.9-11.8,26.9-26.9V75.4c-0.1-15.1-11.9-26.9-27-26.9H117.6z M59.5,445.8l46.8-46
	c1.7-1.7,4-2.6,6.4-2.6h95.4c8.2,0,14.6-6.3,14.6-14.4v-21.3H117.6c-25,0-45.4-20.4-45.4-45.4v-62.9h-39c-8.2,0-14.6,6.3-14.6,14.4
	v115.1c0,8.1,6.4,14.4,14.6,14.4H57c5.1,0,9.2,4,9.3,9.1c0,0.5,0,1.1-0.2,1.8L59.5,445.8z"/>
</svg>
