<?xml version="1.0" encoding="utf-8"?>
<!-- Generator: Adobe Illustrator 22.1.0, SVG Export Plug-In . SVG Version: 6.00 Build 0)  -->
<svg version="1.1" id="Layer_1" xmlns="http://www.w3.org/2000/svg" xmlns:xlink="http://www.w3.org/1999/xlink" x="0px" y="0px"
	 viewBox="0 0 512 512" style="enable-background:new 0 0 512 512;" xml:space="preserve">
<path d="M177.3,298.7c-76.5,0-138.7-62.2-138.7-138.7S100.9,21.3,177.3,21.3S316,83.5,316,160c0,5.9,4.8,10.7,10.7,10.7
	c5.9,0,10.7-4.8,10.7-10.7c0-88.2-71.8-160-160-160s-160,71.8-160,160s71.8,160,160,160c5.9,0,10.7-4.8,10.7-10.7
	C188,303.4,183.2,298.7,177.3,298.7z M177.3,74.7c-24.2,0-50,16.2-53.3,52.4l21.2,1.9c2.8-31.4,27-33,31.9-33
	c7.5,0,31.7,2,31.7,27.3c0,13.4-7.8,19.9-19.5,29.4c-10.6,8.7-25.2,19.5-25.2,39.3v10.7h21.3V192c0-9.2,7.1-14.4,17.3-22.8
	c11.9-9.7,28-21.7,28-45.9C230.6,94.2,209.2,74.7,177.3,74.7z M185.3,224H164v21.3h21.3V224z M454.7,202.7h-192
	c-23.5,0-45.3,19.1-45.3,42.7v181.3c0,23.5,21.8,42.7,45.3,42.7h58.7l28.8,38.4c2,2.7,5.2,4.3,8.5,4.3c3.4,0,6.5-1.6,8.5-4.3
	l28.8-38.4h58.7c23.5,0,40-19.1,40-42.7V245.3C494.7,221.8,478.2,202.7,454.7,202.7z M473.3,426.7c0,11.8-6.9,21.3-18.7,21.3h-64
	c-3.4,0-6.5,1.6-8.5,4.3l-23.5,31.3l-23.5-31.3c-2-2.7-5.2-4.3-8.5-4.3h-64c-11.8,0-24-9.6-24-21.3V245.3c0-11.8,12.2-21.3,24-21.3
	h192c11.8,0,18.7,9.6,18.7,21.3V426.7z M347.1,368l-44.9-44.9l-15.1,15.1l53.3,53.3c2,2,4.7,3.1,7.5,3.1c0.2,0,0.4,0,0.6,0
	c3-0.2,5.8-1.6,7.7-4L441.7,284L425,270.7L347.1,368z"/>
</svg>
